<svg viewBox="0 0 200 200" xmlns="http://www.w3.org/2000/svg">
  <!-- Background circle -->
  <circle cx="100" cy="100" r="95" fill="#1a1a2e" stroke="#daa520" stroke-width="3"/>
  
  <!-- Checkmark -->
  <g stroke="#daa520" stroke-width="4" fill="none" stroke-linecap="round" stroke-linejoin="round">
    <path d="M 60 100 L 85 125 L 140 70" transform="translate(20, 20)"/>
  </g>
  
  <!-- Sun -->
  <g fill="#ffa500">
    <!-- Center circle -->
    <circle cx="100" cy="85" r="16" fill="#ffd700"/>
    
    <!-- Sun rays -->
    <rect x="98" y="50" width="4" height="18" fill="#ffa500"/>
    <rect x="98" y="118" width="4" height="18" fill="#ffa500"/>
    <rect x="132" y="83" width="18" height="4" fill="#ffa500"/>
    <rect x="50" y="83" width="18" height="4" fill="#ffa500"/>
    
    <!-- Diagonal rays -->
    <line x1="120" y1="62" x2="130" y2="52" stroke="#ffa500" stroke-width="3" stroke-linecap="round"/>
    <line x1="138" y1="80" x2="148" y2="70" stroke="#ffa500" stroke-width="3" stroke-linecap="round"/>
    <line x1="138" y1="90" x2="148" y2="100" stroke="#ffa500" stroke-width="3" stroke-linecap="round"/>
    <line x1="120" y1="108" x2="130" y2="118" stroke="#ffa500" stroke-width="3" stroke-linecap="round"/>
    
    <line x1="80" y1="62" x2="70" y2="52" stroke="#ffa500" stroke-width="3" stroke-linecap="round"/>
    <line x1="62" y1="80" x2="52" y2="70" stroke="#ffa500" stroke-width="3" stroke-linecap="round"/>
    <line x1="62" y1="90" x2="52" y2="100" stroke="#ffa500" stroke-width="3" stroke-linecap="round"/>
    <line x1="80" y1="108" x2="70" y2="118" stroke="#ffa500" stroke-width="3" stroke-linecap="round"/>
  </g>
</svg>